<svg xmlns="http://www.w3.org/2000/svg" xmlns:svg="http://www.w3.org/2000/svg" id="svg4794" width="400mm" height="300mm" version="1.1" viewBox="0 0 1417.323 1062.992"><metadata id="metadata4799"/><g id="layer1" transform="translate(0,10.629918)"><path style="display:inline;fill:none;fill-opacity:.57831325;stroke:red;stroke-width:.354;stroke-linecap:square;stroke-miterlimit:4;stroke-dasharray:none;stroke-dashoffset:0;stroke-opacity:1" id="rect4894-5-9-4" d="m 1222.6629,832.67795 -0.066,-354.07307 -17.6846,0 -2e-4,-219.76613 -1169.101787,0 0,219.50853 -17.892827,0 -0.024,354.33067 17.918227,0 0,219.50725 1169.101787,0 0,-219.50725 z m -17.7507,-230.29077 0,106.2509 -212.59844,0 0,-106.2509 z m -219.68505,-248.0542 0,141.7322 -10.6298,0 0,-141.7322 z m -2e-4,460.62977 3e-4,141.73227 -10.6299,0 -3e-4,-141.73227 z m -28.3464,17.8467 3e-4,106.23827 -10.63,0 -2e-4,-106.23827 z m -17.7164,-42.6498 0,191.33857 -81.4963,0 0,-191.33857 z m 0,-170.08007 0,70.8662 -868.110337,0 0,-70.8662 z m -42.52,-290.5498 2e-4,191.3386 -81.4958,0 -3e-4,-191.3386 z m -88.5824,42.8094 0,106.251 -10.6299,0 0,-106.251 z m -10.63,460.43527 2e-4,106.26347 -10.6299,0 -3e-4,-106.26347 z m -17.7164,-42.6148 0,191.33857 -81.49627,0 0,-191.33857 z m -42.52,-460.62987 2e-4,191.3386 -81.49577,0 -3e-4,-191.3386 z m -88.58237,42.8094 0,106.251 -10.6299,0 0,-106.251 z m -10.6301,460.43527 3e-4,106.26347 -10.6299,0 -3e-4,-106.26347 z m -35.4332,-503.24467 3e-4,191.3386 -63.7794,0 -3e-4,-191.3386 z m 17.7168,460.62987 0,191.33857 -63.7797,0 0,-191.33857 z m -88.5826,-417.82047 0,106.251 -10.63,0 0,-106.251 z m -10.6301,460.43527 3e-4,106.26347 -10.6299,0 -3e-4,-106.26347 z m -35.4333,-503.24467 3e-4,191.3386 -63.77937,0 -2e-4,-191.3386 z m 17.7169,460.62987 0,191.33857 -63.77967,0 0,-191.33857 z m -88.58267,-417.82047 0,106.251 -10.6299,0 0,-106.251 z m -10.6301,460.43527 3e-4,106.26347 -10.6299,0 -3e-4,-106.26347 z m -35.4332,-503.24467 3e-4,191.3386 -63.7794,0 -3e-4,-191.3386 z m 17.7168,460.62987 0,191.33857 -63.7796,0 0,-191.33857 z m -88.5826,-417.82047 0,106.251 -10.63,0 0,-106.251 z m -10.6301,460.43527 3e-4,106.26347 -10.6299,0 -3e-4,-106.26347 z m -38.9765,-503.24467 3e-4,191.3386 -60.2362,0 -3e-4,-191.3386 z m 21.2601,460.62987 0,191.33857 -63.7798,0 0,-191.33857 z m -88.5828,-417.82047 0,106.251 -10.6299,0 0,-106.251 z m -10.63,460.43527 3e-4,106.26347 -10.63,0 -3e-4,-106.26347 z m -35.4334,-503.24467 3e-4,191.3386 -63.779297,0 -3e-4,-191.3386 z m 17.7169,460.62987 0,191.33857 -63.779697,0 0,-191.33857 z m -88.582697,-417.82047 0,106.251 -10.6299,0 0,-106.251 z"/><text style="font-style:normal;font-variant:normal;font-weight:400;font-stretch:normal;font-size:22.5px;line-height:125%;font-family:sans-serif;-inkscape-font-specification:'sans-serif, Normal';text-align:start;letter-spacing:0;word-spacing:0;writing-mode:lr-tb;text-anchor:start;fill:#00f;fill-opacity:1;stroke:none;stroke-width:1px;stroke-linecap:butt;stroke-linejoin:miter;stroke-opacity:1" id="text4159" x="1196.457" y="1021.427" xml:space="preserve"><tspan id="tspan4161" x="1196.457" y="1021.427">Use 5mm Acrylic</tspan></text></g></svg>